<svg xmlns="http://www.w3.org/2000/svg" xmlns:xlink="http://www.w3.org/1999/xlink" viewBox="0 0 2490.51 634.99"><defs><style>.cls-1{fill:url(#linear-gradient);}.cls-2{fill:#fff;}</style><linearGradient id="linear-gradient" x1="70.54" y1="110.9" x2="822.41" y2="783.36" gradientUnits="userSpaceOnUse"><stop offset="0" stop-color="#241462"/><stop offset="1" stop-color="#7800b9"/></linearGradient><symbol id="RLVoid" data-name="RLVoid" viewBox="0 0 905.41 879.61"><path class="cls-1" d="M294.15,876.86C122.33,812.6,0,646.94,0,452.7,0,202.68,202.68,0,452.7,0S905.41,202.68,905.41,452.7a450.74,450.74,0,0,1-56.88,219.86A399.08,399.08,0,0,0,878.2,521.12C878.2,300,699,120.81,477.88,120.81S77.57,300,77.57,521.12C77.57,676,165.5,810.28,294.15,876.86ZM802.84,319.25A326.45,326.45,0,0,1,827.06,443c0,180.84-146.61,327.45-327.45,327.45S172.16,623.85,172.16,443a326.12,326.12,0,0,1,74.72-208.23A367,367,0,0,0,121.23,511.67c0,203.21,164.73,367.94,368,367.94S857.12,714.88,857.12,511.67A366.17,366.17,0,0,0,802.84,319.25ZM397.07,219.33C532.56,191.64,664.85,279,692.54,414.51S632.86,682.29,497.36,710a249.29,249.29,0,0,1-166.12-23.41,293.45,293.45,0,0,0,232.5,50.71c159.19-32.54,261.86-188,229.32-347.16s-188-261.86-347.16-229.32C348.33,180.75,272,246.86,235,331.7A249.66,249.66,0,0,1,397.07,219.33Z"/></symbol></defs><title>RLVoid Logo</title><g id="Banner"><use width="905.41" height="879.61" transform="translate(84.37 49.66) scale(0.61)" xlink:href="#RLVoid"/><path class="cls-2" d="M868.8,428.33,820.08,353h-47.6v75.32H752.32V241.57H829q27.16,0,41.16,13.72t14,40.6q0,21.56-11.48,36.4t-30.8,18.48l50.68,77.56ZM772.48,334H819.8q23,0,33.6-9.24T864,297.29q0-17.93-8.4-27.3t-28.84-9.38H772.48Z"/><path class="cls-2" d="M1069,241.57h20.16V408.73h95.48v19.6H1069Z"/><path class="cls-2" d="M1500.48,241.57,1428.8,428.33h-19.88l-71.68-186.76h21.56l61,160.16,59.92-159.6Z"/><path class="cls-2" d="M1679.82,406.91q-21.15-24.23-21.14-71.82t21.14-71.82Q1701,239,1742.4,239.05q41.71,0,62.86,24.22t21.14,71.82q0,47.6-21.14,71.82t-62.86,24.22Q1701,431.13,1679.82,406.91Zm110.74-13.3q15.12-18.48,15.12-58.52,0-39.76-15.12-58.38t-48.16-18.62q-32.76,0-47.88,18.62t-15.12,58.38q0,40,15.12,58.52t47.88,18.48Q1775.43,412.09,1790.56,393.61Z"/><path class="cls-2" d="M2007,241.57h20.16V428.33H2007Z"/><path class="cls-2" d="M2214.75,241.57h58.52q43.68,0,65.66,23.38t22,69.86q0,93.53-87.64,93.52h-58.52Zm57.12,167.72q35.57,0,51.94-17.92t16.38-56.56q0-38.64-16.38-56.56t-51.94-17.92h-37v149Z"/></g></svg>