<svg xmlns="http://www.w3.org/2000/svg" xmlns:xlink="http://www.w3.org/1999/xlink" viewBox="0 0 1080 1080"><defs><style>.cls-1{fill:url(#linear-gradient);}</style><linearGradient id="linear-gradient" x1="70.54" y1="110.9" x2="822.41" y2="783.36" gradientUnits="userSpaceOnUse"><stop offset="0" stop-color="#241462"/><stop offset="1" stop-color="#7800b9"/></linearGradient><symbol id="RLVoid" data-name="RLVoid" viewBox="0 0 905.41 879.61"><path class="cls-1" d="M294.15,876.86C122.33,812.6,0,646.94,0,452.7,0,202.68,202.68,0,452.7,0S905.41,202.68,905.41,452.7a450.74,450.74,0,0,1-56.88,219.86A399.08,399.08,0,0,0,878.2,521.12C878.2,300,699,120.81,477.88,120.81S77.57,300,77.57,521.12C77.57,676,165.5,810.28,294.15,876.86ZM802.84,319.25A326.45,326.45,0,0,1,827.06,443c0,180.84-146.61,327.45-327.45,327.45S172.16,623.85,172.16,443a326.12,326.12,0,0,1,74.72-208.23A367,367,0,0,0,121.23,511.67c0,203.21,164.73,367.94,368,367.94S857.12,714.88,857.12,511.67A366.17,366.17,0,0,0,802.84,319.25ZM397.07,219.33C532.56,191.64,664.85,279,692.54,414.51S632.86,682.29,497.36,710a249.29,249.29,0,0,1-166.12-23.41,293.45,293.45,0,0,0,232.5,50.71c159.19-32.54,261.86-188,229.32-347.16s-188-261.86-347.16-229.32C348.33,180.75,272,246.86,235,331.7A249.66,249.66,0,0,1,397.07,219.33Z"/></symbol></defs><title>RLVoid Logo</title><g id="Layer_3" data-name="Layer 3"><use width="905.41" height="879.61" transform="translate(87.3 100.19)" xlink:href="#RLVoid"/></g></svg>