<?xml version="1.0" standalone="no"?>
<!DOCTYPE svg PUBLIC "-//W3C//DTD SVG 20010904//EN"
 "http://www.w3.org/TR/2001/REC-SVG-20010904/DTD/svg10.dtd">
<svg version="1.0" xmlns="http://www.w3.org/2000/svg"
 width="4501.000000pt" height="4501.000000pt" viewBox="0 0 4501.000000 4501.000000"
 preserveAspectRatio="xMidYMid meet">
<metadata>
Created by potrace 1.11, written by Peter Selinger 2001-2013
</metadata>
<g transform="translate(0.000000,4501.000000) scale(0.100000,-0.100000)"
fill="#000000" stroke="none">
<path d="M21889 40825 c-2 -2 -83 -6 -179 -10 -392 -15 -656 -33 -1130 -79
-30 -3 -77 -8 -105 -10 -27 -3 -70 -8 -95 -11 -48 -6 -98 -12 -169 -20 -24 -2
-61 -7 -82 -10 -21 -3 -56 -7 -78 -10 -21 -3 -56 -8 -77 -10 -46 -6 -109 -15
-144 -20 -14 -2 -45 -7 -70 -10 -25 -3 -56 -8 -70 -10 -14 -2 -43 -6 -65 -10
-23 -3 -52 -7 -65 -10 -13 -3 -42 -7 -65 -10 -43 -7 -78 -12 -110 -19 -11 -2
-42 -7 -69 -10 -27 -4 -52 -9 -55 -10 -3 -2 -26 -7 -51 -10 -25 -3 -56 -8 -70
-11 -14 -3 -38 -7 -55 -10 -16 -3 -43 -8 -60 -12 -16 -3 -37 -7 -45 -9 -43 -6
-97 -16 -112 -20 -16 -5 -36 -9 -88 -19 -14 -3 -36 -7 -50 -10 -31 -6 -66 -13
-105 -20 -16 -3 -46 -10 -65 -15 -19 -5 -46 -11 -60 -14 -14 -2 -59 -12 -100
-21 -41 -9 -86 -18 -100 -21 -14 -3 -43 -10 -65 -16 -22 -5 -51 -12 -65 -15
-14 -2 -43 -9 -65 -15 -22 -5 -50 -12 -62 -14 -12 -2 -34 -9 -48 -14 -14 -5
-25 -8 -25 -5 0 2 -18 -2 -40 -10 -22 -8 -40 -12 -40 -10 0 3 -11 0 -25 -5
-14 -5 -36 -12 -48 -14 -12 -2 -58 -14 -102 -26 -44 -12 -87 -23 -95 -25 -8
-2 -58 -15 -110 -30 -52 -14 -102 -28 -110 -30 -8 -2 -15 -4 -15 -5 0 -1 -7
-3 -15 -5 -8 -1 -35 -8 -60 -15 -25 -7 -46 -12 -48 -11 -1 1 -18 -5 -37 -13
-20 -9 -39 -15 -43 -16 -14 -1 -88 -22 -132 -37 -25 -8 -52 -16 -60 -18 -12
-2 -71 -20 -198 -60 -7 -3 -14 -5 -17 -5 -3 0 -24 -8 -47 -16 -24 -9 -83 -28
-133 -44 -49 -16 -148 -49 -220 -75 -71 -25 -134 -47 -140 -49 -25 -6 -91 -29
-100 -35 -5 -3 -12 -6 -15 -6 -10 -1 -85 -28 -95 -34 -5 -3 -14 -6 -20 -7 -9
-2 -211 -77 -280 -105 -16 -7 -34 -13 -40 -15 -23 -5 -494 -198 -537 -220 -27
-13 -48 -21 -48 -19 0 2 -28 -9 -62 -25 -122 -55 -163 -73 -176 -76 -7 -1 -28
-12 -48 -23 -19 -12 -39 -21 -43 -21 -10 0 -161 -70 -501 -232 -80 -38 -152
-73 -160 -78 -8 -4 -78 -40 -155 -79 -77 -39 -180 -92 -230 -119 -168 -89
-285 -152 -332 -179 -27 -14 -64 -35 -83 -46 -126 -69 -286 -163 -288 -169 -2
-5 -8 -8 -14 -8 -10 0 -42 -18 -198 -114 -41 -25 -101 -60 -132 -78 -32 -18
-58 -36 -58 -40 0 -5 -5 -8 -10 -8 -33 0 -726 -459 -1093 -724 -93 -66 -176
-125 -185 -131 -9 -5 -19 -13 -22 -16 -3 -3 -77 -60 -165 -126 -140 -105 -308
-234 -341 -262 -6 -5 -71 -58 -145 -117 -219 -176 -553 -459 -735 -623 -276
-250 -407 -374 -673 -635 -178 -176 -488 -494 -565 -581 -15 -16 -46 -50 -70
-75 -23 -25 -87 -94 -141 -155 -55 -60 -104 -115 -110 -121 -5 -6 -32 -37 -60
-69 -27 -32 -70 -81 -94 -109 -76 -88 -84 -98 -212 -251 -69 -82 -170 -206
-224 -275 -55 -69 -102 -127 -105 -130 -3 -3 -25 -32 -50 -65 -25 -33 -48 -62
-51 -65 -3 -3 -70 -90 -147 -195 -78 -104 -146 -194 -150 -200 -36 -44 -324
-453 -347 -492 -5 -10 -15 -22 -21 -28 -27 -26 -468 -713 -530 -825 -10 -19
-22 -37 -25 -40 -8 -7 -129 -210 -129 -216 0 -3 -15 -28 -33 -57 -18 -29 -47
-77 -64 -107 -16 -30 -63 -113 -103 -185 -155 -277 -225 -409 -408 -775 -86
-174 -174 -351 -194 -395 -57 -122 -113 -245 -135 -295 -65 -145 -94 -212
-118 -270 -15 -36 -30 -69 -34 -75 -7 -9 -44 -102 -46 -115 -1 -3 -9 -23 -19
-45 -10 -22 -44 -107 -77 -190 -33 -82 -66 -163 -73 -180 -12 -26 -27 -67 -31
-85 -1 -3 -6 -16 -13 -30 -37 -84 -299 -823 -317 -895 -1 -5 -5 -17 -8 -25 -5
-13 -69 -217 -72 -230 -1 -4 -18 -62 -31 -105 -31 -100 -96 -325 -99 -339 -3
-11 -11 -40 -19 -65 -13 -39 -71 -255 -81 -301 -2 -8 -20 -78 -40 -155 -20
-77 -38 -151 -41 -165 -3 -14 -7 -33 -10 -42 -3 -9 -7 -25 -9 -35 -2 -10 -16
-70 -30 -133 -15 -63 -28 -122 -30 -130 -2 -8 -8 -35 -14 -60 -5 -25 -13 -60
-16 -79 -3 -19 -7 -37 -9 -40 -2 -3 -7 -22 -10 -41 -6 -36 -11 -65 -21 -110
-3 -14 -7 -35 -10 -48 -2 -13 -6 -31 -9 -40 -3 -9 -7 -33 -10 -52 -3 -19 -8
-46 -11 -60 -3 -14 -7 -37 -10 -52 -3 -16 -8 -43 -11 -60 -4 -18 -7 -40 -9
-48 -1 -8 -5 -28 -8 -45 -4 -16 -9 -43 -11 -60 -8 -49 -16 -93 -22 -127 -9
-46 -12 -67 -19 -113 -3 -22 -10 -65 -15 -95 -13 -73 -18 -106 -25 -160 -3
-25 -8 -56 -11 -70 -2 -14 -6 -43 -9 -65 -2 -22 -6 -53 -9 -70 -3 -16 -7 -48
-10 -70 -13 -94 -19 -142 -21 -165 -2 -14 -6 -50 -10 -80 -4 -30 -8 -66 -10
-80 -2 -14 -6 -49 -9 -78 -18 -156 -24 -217 -31 -302 -3 -36 -8 -81 -10 -100
-3 -19 -7 -71 -11 -115 -3 -44 -7 -96 -9 -115 -2 -20 -7 -85 -11 -145 -3 -61
-8 -126 -9 -145 -53 -746 -50 -1810 9 -2590 12 -152 17 -218 21 -260 2 -25 7
-74 10 -110 3 -36 7 -85 10 -110 3 -25 7 -70 10 -100 3 -30 7 -75 10 -100 3
-25 7 -67 10 -95 3 -27 8 -61 10 -75 2 -14 7 -54 10 -90 3 -36 8 -76 10 -90 2
-14 7 -45 10 -70 3 -25 8 -56 10 -70 2 -14 7 -50 10 -80 3 -30 8 -62 10 -70 2
-8 7 -35 10 -60 2 -25 7 -54 9 -65 2 -11 7 -45 11 -75 4 -30 9 -64 11 -75 2
-10 6 -35 9 -55 3 -20 7 -47 10 -60 3 -13 7 -40 10 -60 3 -20 8 -47 10 -60 3
-14 7 -38 10 -55 2 -16 6 -39 8 -50 3 -11 8 -40 12 -65 4 -25 9 -54 12 -65 2
-11 6 -29 7 -40 2 -11 7 -38 11 -60 4 -22 9 -48 11 -58 2 -10 5 -26 8 -35 3
-9 7 -33 10 -52 3 -19 8 -46 11 -60 3 -14 7 -36 10 -50 3 -14 7 -35 10 -48 3
-12 7 -32 10 -45 6 -25 12 -57 20 -102 3 -16 8 -38 11 -47 3 -9 7 -27 10 -40
9 -43 24 -113 29 -133 7 -29 14 -62 20 -88 6 -29 19 -84 45 -186 12 -46 23
-92 25 -103 2 -11 7 -28 10 -38 3 -10 8 -28 10 -39 3 -12 7 -30 10 -41 3 -11
7 -29 9 -40 3 -11 16 -61 30 -112 14 -51 32 -118 40 -148 8 -30 31 -111 51
-180 20 -69 37 -129 39 -135 23 -82 30 -108 43 -150 22 -75 22 -75 23 -80 0
-3 8 -24 16 -47 9 -24 17 -50 19 -58 2 -8 24 -78 50 -155 25 -77 48 -147 50
-155 8 -34 162 -474 182 -520 3 -8 7 -19 9 -25 19 -66 252 -658 314 -800 10
-22 35 -80 55 -129 20 -49 40 -96 45 -105 11 -21 54 -115 55 -121 1 -3 10 -23
20 -45 10 -22 19 -42 19 -45 1 -3 9 -21 18 -40 9 -19 33 -71 53 -115 102 -224
337 -700 443 -898 23 -42 61 -112 83 -154 23 -43 49 -91 59 -108 9 -16 34 -61
55 -100 641 -1162 1526 -2406 2425 -3405 47 -52 90 -100 95 -106 18 -21 218
-237 295 -318 201 -212 634 -639 870 -859 148 -137 488 -438 630 -557 36 -30
67 -57 70 -60 3 -3 46 -39 95 -79 50 -40 108 -88 130 -106 43 -35 138 -111
201 -160 35 -28 125 -99 184 -145 118 -93 458 -342 745 -545 48 -33 178 -121
270 -183 55 -36 102 -70 103 -74 2 -4 7 -8 11 -8 5 0 42 -22 84 -50 42 -27 80
-50 86 -50 5 0 11 -3 13 -7 4 -11 116 -83 127 -83 5 0 11 -4 13 -8 8 -20 801
-492 827 -492 5 0 11 -4 13 -8 2 -5 39 -28 83 -52 44 -23 107 -57 140 -75 223
-122 749 -389 950 -482 50 -23 124 -57 165 -76 68 -32 144 -66 225 -102 17 -7
61 -27 98 -44 38 -17 70 -31 72 -31 3 0 34 -13 70 -30 36 -16 69 -30 73 -30 4
-1 25 -9 47 -20 22 -11 43 -19 48 -20 4 0 29 -10 55 -21 26 -12 61 -27 77 -34
41 -18 297 -118 365 -143 30 -11 73 -28 95 -37 62 -26 29 -2 -70 50 -244 129
-292 156 -560 310 -190 109 -261 152 -547 329 -138 85 -622 410 -778 521 -150
107 -526 386 -575 427 -11 9 -66 52 -122 97 -170 134 -416 338 -568 470 -166
145 -312 275 -330 295 -6 6 -48 45 -95 87 -242 218 -705 685 -990 999 -67 74
-137 151 -154 170 -83 90 -397 462 -505 599 -25 31 -47 58 -51 61 -18 14 -366
474 -496 654 -259 360 -540 787 -771 1171 -59 99 -113 189 -119 200 -6 11 -39
70 -74 130 -78 137 -89 157 -229 415 -94 172 -343 677 -454 920 -19 41 -45 98
-58 125 -12 28 -24 55 -25 60 -1 6 -17 42 -35 80 -17 39 -33 75 -34 80 -2 6
-12 30 -23 55 -69 150 -253 620 -339 865 -13 39 -28 79 -33 90 -4 11 -22 63
-40 115 -17 52 -34 102 -37 110 -3 8 -7 21 -9 27 -1 7 -10 34 -19 60 -18 49
-22 62 -24 76 0 4 -8 21 -16 37 -9 17 -13 30 -11 30 3 0 1 12 -5 28 -24 62
-152 491 -165 551 -3 13 -9 32 -15 43 -5 10 -8 18 -5 18 2 0 -3 21 -11 48 -14
47 -19 65 -27 102 -3 11 -7 24 -10 28 -3 5 -7 19 -9 33 -3 13 -10 44 -17 69
-7 25 -13 52 -15 60 -2 8 -8 35 -15 60 -12 43 -14 54 -25 101 -2 11 -7 29 -10
39 -6 19 -13 49 -20 85 -2 11 -11 52 -20 90 -9 39 -18 81 -21 95 -3 14 -13 63
-24 110 -35 159 -50 228 -56 267 -3 21 -9 54 -14 73 -5 19 -11 51 -14 70 -3
19 -8 46 -11 60 -6 27 -12 62 -20 108 -7 45 -14 86 -20 112 -3 14 -7 39 -9 55
-6 40 -27 167 -31 185 -1 3 -5 32 -9 65 -4 32 -10 68 -12 79 -2 11 -6 38 -9
61 -4 22 -8 51 -10 65 -2 14 -7 49 -10 79 -4 30 -9 63 -11 75 -2 11 -6 45 -9
76 -3 31 -7 64 -9 75 -3 18 -11 77 -22 180 -2 17 -6 59 -9 95 -3 36 -8 79 -9
95 -2 17 -7 64 -10 105 -4 41 -9 97 -12 124 -4 47 -12 145 -19 246 -48 642
-52 1551 -11 2210 4 58 9 134 11 170 2 36 6 92 9 125 3 33 8 92 11 130 3 39 8
86 10 105 3 19 7 69 10 111 3 42 8 86 10 98 2 12 7 53 10 91 3 38 8 80 10 92
3 12 7 50 10 83 3 33 8 74 11 90 6 34 11 70 19 135 7 63 12 100 19 135 3 17 8
53 12 80 3 28 7 59 9 70 2 11 6 38 10 60 3 22 8 51 10 65 3 14 7 43 11 65 3
22 7 47 9 55 2 8 7 33 10 55 3 23 8 52 10 65 3 14 8 40 11 59 3 18 8 43 10 55
2 11 6 35 9 51 3 17 8 44 12 60 3 17 7 39 9 50 2 11 5 31 9 45 3 14 7 36 10
50 3 14 7 36 10 50 3 14 7 37 10 52 2 15 6 35 9 45 3 10 7 29 10 43 3 14 8 36
11 50 3 14 8 39 10 55 3 17 9 44 14 60 5 17 15 57 22 90 7 33 13 62 14 65 1 3
4 19 8 35 4 17 9 39 12 50 2 11 12 49 20 85 9 36 18 73 21 83 2 9 6 26 9 37 3
11 7 28 9 38 2 9 16 62 31 117 14 55 28 107 30 115 14 53 58 209 80 285 15 50
28 97 30 105 2 8 8 26 13 40 5 14 10 27 9 30 0 4 36 124 71 235 3 11 7 22 7
25 1 3 4 12 8 20 3 8 26 78 51 155 25 77 64 192 86 255 23 63 43 120 44 125 2
6 6 17 9 25 4 8 29 76 56 150 45 123 168 443 191 498 6 12 14 32 20 45 5 12
37 87 71 167 66 158 70 168 123 283 20 44 36 80 36 82 0 2 21 47 46 102 25 54
60 127 76 163 30 65 247 499 330 660 23 46 49 90 56 98 6 7 12 17 12 22 0 4
17 39 39 77 21 37 49 88 63 113 86 155 203 356 210 358 4 2 8 9 8 15 0 10 118
205 263 437 112 178 381 578 469 697 21 29 38 55 38 57 0 3 7 14 15 23 8 10
57 77 109 148 52 72 99 135 103 140 5 6 60 78 123 160 290 381 714 883 1025
1214 177 189 592 607 770 777 127 120 399 365 561 504 99 85 181 156 184 160
3 3 25 21 50 40 25 19 47 37 50 40 3 3 43 37 90 74 47 38 94 76 105 85 83 68
335 261 515 393 118 87 224 165 235 173 25 19 107 76 159 111 22 15 44 31 50
36 6 5 103 70 216 144 113 74 213 142 223 150 9 7 19 14 22 14 2 0 70 42 152
93 81 51 193 119 248 152 55 32 101 63 103 67 2 4 8 8 13 8 5 0 82 42 171 94
195 112 236 134 353 197 50 26 110 59 135 73 44 25 717 360 795 396 61 28 160
73 255 115 47 20 113 50 148 66 35 16 66 29 68 29 3 0 24 9 48 19 23 11 67 29
96 41 29 12 72 29 94 39 43 19 64 27 81 31 6 1 19 7 30 13 11 6 25 12 30 13
14 3 114 44 151 61 17 8 37 16 45 17 8 2 25 7 39 13 14 6 77 29 140 52 63 24
127 47 142 53 15 5 30 10 33 9 3 -1 18 5 33 13 20 10 475 165 502 171 3 1 39
12 80 24 41 13 75 22 75 21 0 -1 14 4 30 10 28 11 267 83 365 111 25 7 50 14
55 15 6 2 23 6 39 9 16 3 33 8 38 11 4 3 16 7 25 9 10 2 45 11 78 20 33 9 70
18 82 21 12 2 34 9 48 14 14 5 25 7 25 5 0 -2 11 0 25 5 14 5 36 12 48 14 12
3 33 8 47 11 14 3 35 8 47 11 12 2 34 9 48 14 14 5 25 7 25 5 0 -2 12 0 27 6
14 5 38 12 52 14 14 2 37 6 51 10 14 3 34 8 45 10 11 3 31 7 45 10 14 4 34 8
45 10 11 3 31 7 45 10 14 4 36 8 50 11 14 3 32 7 40 9 8 2 30 7 49 10 19 3 37
8 41 10 3 2 29 7 56 11 27 3 52 8 55 10 4 2 24 6 45 9 22 4 47 8 56 11 10 3
30 7 45 10 58 10 139 24 163 29 28 6 71 14 110 20 14 2 40 7 58 10 17 3 46 7
62 10 17 3 45 7 63 10 51 9 79 13 122 20 23 3 52 8 65 11 14 2 39 6 55 8 51 7
129 17 155 22 14 2 50 6 80 10 30 3 64 8 75 10 11 2 43 6 70 9 28 3 67 7 88
10 91 12 115 15 165 20 28 3 76 7 105 10 102 11 153 16 197 20 25 2 74 6 110
9 344 29 559 41 960 52 395 11 925 6 1235 -11 382 -21 510 -30 720 -49 33 -4
83 -8 110 -11 121 -11 174 -17 290 -29 38 -5 59 -7 180 -22 28 -3 61 -7 75 -9
14 -3 45 -7 70 -10 25 -3 56 -7 70 -10 14 -2 49 -7 79 -10 30 -4 63 -9 75 -11
12 -2 39 -6 61 -9 22 -3 65 -9 95 -15 30 -5 71 -11 90 -14 19 -3 46 -8 60 -11
14 -2 66 -11 115 -19 50 -8 101 -18 115 -20 13 -3 42 -8 64 -12 22 -3 43 -7
46 -9 3 -2 24 -6 46 -9 22 -4 51 -8 64 -11 43 -8 174 -35 200 -41 14 -3 34 -7
45 -9 56 -11 82 -16 100 -22 11 -3 29 -7 40 -8 11 -2 38 -8 60 -13 22 -6 51
-13 65 -16 48 -9 75 -16 139 -32 36 -9 73 -18 83 -20 10 -2 27 -6 38 -9 11 -3
29 -7 41 -10 11 -2 29 -7 39 -10 10 -3 28 -8 39 -10 12 -3 30 -7 41 -10 11 -3
28 -7 38 -9 9 -3 42 -11 72 -20 143 -39 217 -58 239 -62 14 -3 28 -7 33 -10 4
-3 16 -7 25 -9 10 -2 117 -33 238 -70 121 -36 228 -68 237 -70 9 -2 26 -9 37
-15 12 -6 21 -9 21 -6 0 2 51 -14 113 -36 61 -21 119 -41 127 -43 8 -2 29 -8
45 -13 32 -10 450 -159 475 -169 8 -4 17 -7 20 -8 3 -1 14 -5 25 -10 56 -23
171 -67 180 -70 10 -2 34 -11 100 -40 22 -9 45 -18 50 -19 15 -4 44 -16 105
-44 30 -13 72 -30 93 -38 20 -7 52 -20 70 -27 36 -16 97 -43 142 -62 17 -7 65
-29 108 -49 44 -20 82 -36 85 -36 4 0 48 -20 97 -43 50 -24 128 -61 175 -82
97 -44 742 -367 750 -376 3 -3 19 -12 35 -20 64 -32 270 -146 500 -279 73 -42
396 -237 458 -277 37 -24 70 -43 73 -43 2 0 10 -5 17 -10 7 -6 114 -77 238
-159 247 -162 462 -311 467 -323 2 -4 8 -8 13 -8 20 0 483 -347 779 -584 175
-139 196 -157 305 -251 32 -27 65 -54 74 -59 9 -5 21 -15 26 -22 6 -7 48 -45
95 -84 98 -84 231 -202 276 -245 17 -16 51 -48 75 -69 243 -216 794 -768 1049
-1051 34 -38 79 -88 99 -110 229 -250 623 -725 843 -1018 51 -67 96 -126 100
-132 43 -56 66 -87 145 -195 49 -69 133 -188 186 -265 53 -77 103 -147 112
-156 8 -9 15 -19 15 -22 0 -3 33 -55 73 -114 111 -166 300 -462 368 -577 18
-32 41 -70 50 -85 39 -64 189 -322 224 -386 22 -38 43 -71 47 -73 4 -2 8 -8 8
-13 0 -6 29 -63 64 -127 115 -212 339 -645 346 -667 0 -3 29 -64 64 -137 35
-73 76 -160 91 -193 15 -33 37 -82 50 -110 13 -27 34 -75 48 -106 35 -77 197
-460 197 -464 0 -2 5 -16 12 -32 6 -15 12 -31 12 -34 1 -3 11 -28 22 -55 39
-88 48 -109 50 -116 1 -5 3 -10 4 -13 1 -3 3 -9 4 -13 0 -4 9 -26 18 -47 9
-22 32 -83 51 -135 19 -52 38 -104 43 -115 4 -11 8 -22 9 -25 1 -3 5 -12 8
-20 13 -30 109 -309 148 -430 23 -69 49 -150 59 -180 10 -30 35 -109 55 -175
20 -66 41 -133 46 -150 30 -99 51 -173 55 -194 3 -14 7 -28 10 -33 3 -5 7 -21
10 -36 2 -15 9 -38 14 -52 8 -21 63 -227 76 -282 2 -10 6 -26 9 -35 4 -18 23
-93 31 -125 2 -10 6 -26 8 -35 6 -25 37 -154 42 -175 5 -24 15 -61 18 -73 2
-5 6 -28 10 -50 5 -22 14 -65 22 -95 7 -30 16 -71 19 -90 3 -19 8 -42 10 -50
2 -8 7 -31 10 -50 3 -19 8 -43 11 -53 3 -11 7 -29 9 -40 3 -21 8 -49 20 -107
3 -14 7 -38 10 -55 3 -16 8 -41 10 -55 12 -58 15 -77 20 -105 11 -64 25 -141
30 -172 3 -18 7 -46 10 -63 3 -16 7 -45 10 -62 3 -18 8 -44 10 -58 3 -14 7
-41 9 -60 5 -35 13 -92 21 -140 3 -14 7 -50 11 -80 3 -30 8 -64 10 -75 2 -11
6 -40 9 -65 3 -25 8 -61 11 -80 6 -42 11 -86 19 -160 3 -30 8 -71 10 -90 3
-19 7 -62 11 -95 3 -33 8 -78 10 -100 2 -22 6 -65 9 -95 2 -30 6 -77 9 -105
11 -110 30 -384 41 -595 25 -454 25 -1245 0 -1725 -9 -183 -28 -448 -40 -575
-2 -25 -7 -76 -10 -115 -4 -38 -8 -88 -10 -110 -3 -22 -7 -65 -10 -95 -2 -30
-7 -70 -10 -90 -2 -19 -7 -62 -11 -95 -9 -89 -11 -106 -17 -150 -4 -22 -9 -65
-12 -95 -3 -30 -8 -62 -10 -70 -2 -8 -7 -40 -10 -70 -4 -30 -8 -64 -10 -75 -2
-11 -6 -40 -9 -64 -3 -23 -8 -56 -11 -72 -3 -16 -7 -44 -10 -61 -3 -18 -7 -44
-10 -58 -2 -14 -7 -43 -10 -65 -3 -23 -7 -52 -10 -65 -3 -14 -7 -36 -9 -50 -3
-14 -8 -41 -10 -60 -3 -19 -8 -46 -11 -60 -3 -14 -7 -36 -10 -50 -3 -14 -9
-51 -15 -82 -13 -73 -16 -90 -30 -158 -6 -30 -13 -66 -15 -80 -9 -48 -14 -72
-19 -88 -3 -9 -8 -32 -11 -49 -3 -18 -12 -61 -20 -95 -8 -35 -16 -74 -19 -88
-2 -14 -16 -72 -30 -130 -14 -58 -27 -116 -30 -130 -2 -14 -13 -59 -24 -100
-12 -41 -23 -88 -26 -103 -3 -15 -12 -54 -21 -85 -14 -47 -43 -156 -60 -222
-2 -8 -14 -49 -25 -90 -12 -41 -23 -79 -24 -85 -1 -5 -10 -37 -20 -70 -10 -33
-19 -64 -20 -70 -1 -5 -9 -32 -18 -60 -9 -27 -33 -104 -54 -170 -92 -301 -270
-815 -339 -980 -28 -67 -88 -230 -86 -233 1 -1 -5 -15 -13 -30 -21 -40 -46
-99 -46 -109 0 -12 33 47 192 342 51 95 378 750 421 845 14 31 44 95 66 144
23 48 41 89 41 91 0 2 15 37 34 77 68 148 86 189 86 193 0 5 17 44 51 120 52
116 210 514 294 740 13 33 26 69 30 80 5 11 9 22 10 25 1 3 5 14 9 25 29 75
38 102 41 117 2 9 8 25 13 35 11 22 171 492 176 519 2 10 11 37 20 59 16 42
74 228 81 261 2 10 13 46 23 79 19 56 51 166 117 405 1 3 7 25 14 50 7 25 15
54 18 65 5 23 5 25 22 85 7 25 15 53 17 62 2 10 6 27 9 38 11 45 16 66 21 87
2 12 9 34 14 48 5 14 7 25 5 25 -2 0 0 11 5 25 5 14 12 36 14 48 9 41 14 62
24 102 6 22 14 52 17 68 7 37 19 93 29 135 9 37 25 108 30 132 3 14 7 36 10
50 3 14 8 36 11 50 3 14 8 35 10 47 3 13 7 33 10 45 15 73 19 90 30 148 3 14
7 36 10 50 3 14 7 37 10 53 3 15 7 39 10 55 3 15 7 38 10 52 3 14 8 39 10 55
3 17 7 41 10 55 7 34 12 63 30 168 5 35 13 78 20 120 3 17 7 47 10 65 3 17 7
43 10 57 3 14 7 43 10 65 2 22 7 49 9 60 2 11 7 43 11 70 4 28 8 59 10 70 2
11 6 43 9 70 4 28 9 61 11 75 4 25 15 112 20 160 1 14 5 43 9 65 3 22 8 63 11
90 3 28 7 68 10 90 3 22 8 61 10 88 3 26 7 71 11 100 3 28 7 72 9 97 2 25 6
68 9 95 3 28 8 84 11 125 3 41 8 98 11 125 11 128 25 337 39 615 28 532 24
1442 -10 2005 -13 228 -23 357 -40 551 -3 34 -7 85 -10 115 -2 30 -7 79 -10
109 -3 30 -8 73 -10 95 -5 58 -21 203 -30 268 -3 20 -7 61 -10 90 -3 28 -7 63
-10 77 -2 14 -7 50 -10 80 -4 30 -8 64 -10 75 -1 11 -6 43 -10 70 -7 51 -12
84 -20 133 -2 15 -6 47 -9 72 -3 25 -8 56 -11 70 -2 13 -7 42 -10 65 -10 66
-16 106 -21 129 -2 11 -7 41 -10 66 -3 25 -8 47 -9 50 -2 3 -6 24 -9 46 -4 22
-9 51 -11 64 -3 14 -8 41 -11 60 -3 19 -7 42 -9 50 -2 8 -7 30 -10 48 -3 17
-7 44 -10 60 -4 25 -7 41 -20 102 -2 14 -7 36 -9 50 -3 14 -8 36 -11 50 -3 14
-8 41 -11 60 -3 19 -13 64 -21 100 -8 36 -17 74 -19 85 -2 11 -11 52 -19 90
-21 96 -24 106 -32 140 -4 17 -7 32 -8 35 -1 3 -5 21 -10 40 -5 19 -10 42 -11
50 -4 28 -13 64 -55 225 -22 88 -42 167 -44 175 -2 8 -13 51 -24 95 -12 44
-23 87 -25 95 -2 8 -10 35 -17 60 -7 25 -14 50 -15 55 -1 6 -10 35 -18 65 -9
30 -18 62 -20 70 -8 29 -77 265 -86 295 -6 17 -22 68 -36 115 -39 129 -113
355 -144 445 -15 44 -40 116 -55 160 -15 44 -30 89 -35 100 -5 11 -32 85 -60
165 -28 80 -62 172 -75 205 -13 33 -39 103 -59 155 -20 52 -41 105 -46 118
-16 35 -26 60 -70 172 -41 103 -52 129 -83 200 -26 61 -46 110 -46 115 0 3 -7
18 -15 33 -8 15 -38 81 -66 147 -185 425 -491 1048 -708 1437 -10 18 -36 65
-57 103 -82 148 -292 510 -375 645 -229 371 -417 662 -432 668 -4 2 -8 8 -8
13 0 8 -64 108 -92 144 -5 6 -61 87 -126 180 -146 211 -243 344 -437 600 -132
175 -388 501 -404 515 -3 3 -24 28 -46 55 -77 97 -312 372 -479 560 -264 298
-404 446 -714 759 -261 263 -527 519 -676 651 -6 6 -56 51 -111 101 -210 190
-522 455 -773 658 -74 59 -139 111 -145 116 -42 34 -142 111 -267 206 -80 60
-149 112 -155 117 -5 4 -41 31 -80 59 -38 28 -72 54 -75 57 -3 3 -13 11 -22
16 -9 6 -84 58 -165 116 -155 111 -236 167 -418 290 -60 41 -111 77 -113 82
-2 4 -8 7 -13 7 -6 0 -42 22 -82 48 -139 94 -345 222 -355 222 -6 0 -12 4 -14
9 -3 7 -375 234 -498 303 -25 14 -77 44 -117 67 -413 236 -920 498 -1340 692
-35 16 -93 43 -130 60 -165 77 -379 169 -390 169 -7 0 -13 5 -13 10 0 6 -3 9
-7 8 -9 -2 -36 9 -218 87 -16 8 -66 27 -110 44 -44 17 -92 38 -107 47 -16 8
-28 12 -28 8 0 -3 -7 0 -17 7 -9 8 -19 13 -22 13 -3 -1 -15 2 -26 7 -22 9
-256 97 -275 104 -3 1 -12 5 -20 8 -18 8 -145 55 -180 67 -14 5 -90 31 -170
60 -80 28 -174 60 -210 72 -36 11 -74 24 -85 28 -35 14 -76 27 -255 83 -96 31
-186 59 -200 63 -14 4 -27 9 -30 9 -3 1 -25 7 -50 15 -25 7 -49 14 -55 16 -5
1 -55 16 -111 33 -96 29 -217 62 -424 118 -52 14 -103 27 -112 29 -10 2 -26 6
-35 9 -92 24 -183 46 -207 50 -16 3 -32 8 -36 10 -4 2 -21 7 -39 10 -17 3 -57
12 -89 21 -31 8 -69 17 -84 19 -15 2 -36 6 -47 10 -11 3 -28 8 -38 10 -86 19
-172 38 -193 41 -14 3 -54 12 -90 20 -36 8 -76 17 -90 19 -14 2 -36 6 -50 9
-14 3 -41 9 -60 12 -54 10 -110 21 -150 29 -14 3 -50 9 -80 15 -30 6 -65 12
-76 14 -12 2 -37 7 -55 10 -19 3 -43 7 -54 10 -11 2 -40 7 -65 11 -69 10 -93
14 -120 20 -14 3 -45 8 -70 11 -25 3 -54 8 -65 10 -10 2 -37 6 -60 9 -22 3
-51 8 -65 11 -14 2 -45 7 -70 9 -25 3 -56 7 -70 10 -14 3 -45 7 -70 10 -25 3
-56 7 -69 10 -13 2 -49 7 -80 10 -31 4 -67 8 -81 10 -14 3 -45 7 -70 9 -25 3
-66 8 -92 11 -27 3 -68 7 -93 10 -25 3 -65 7 -90 10 -138 15 -386 39 -530 49
-221 17 -287 21 -480 32 -66 3 -154 8 -195 11 -89 5 -1426 13 -1431 8z"/>
<path d="M24188 34375 c-1 -2 -66 -6 -143 -10 -207 -10 -362 -22 -545 -40 -25
-3 -72 -7 -105 -10 -33 -3 -76 -8 -95 -10 -121 -15 -185 -23 -230 -30 -14 -2
-50 -7 -80 -10 -30 -4 -62 -9 -71 -10 -9 -2 -40 -6 -69 -10 -29 -4 -62 -9 -74
-11 -12 -2 -37 -7 -56 -10 -44 -6 -66 -10 -110 -18 -19 -4 -62 -11 -95 -17
-33 -5 -91 -16 -130 -24 -38 -8 -83 -16 -100 -19 -16 -3 -41 -8 -55 -11 -14
-3 -41 -8 -60 -11 -19 -3 -38 -8 -41 -10 -3 -2 -19 -6 -35 -8 -16 -3 -39 -8
-51 -11 -13 -3 -33 -7 -45 -10 -13 -2 -36 -8 -53 -12 -16 -4 -32 -7 -35 -8 -3
-1 -18 -4 -35 -8 -35 -9 -70 -16 -105 -23 -14 -3 -34 -8 -45 -11 -22 -7 -29
-9 -60 -16 -11 -3 -65 -17 -120 -32 -55 -15 -107 -28 -115 -30 -15 -4 -265
-76 -390 -113 -148 -44 -629 -209 -705 -242 -11 -5 -42 -16 -70 -26 -27 -10
-54 -20 -60 -24 -5 -4 -32 -15 -60 -25 -27 -9 -66 -24 -85 -32 -19 -8 -44 -19
-55 -23 -11 -4 -36 -15 -57 -24 -20 -9 -38 -16 -41 -16 -3 0 -40 -16 -81 -35
-42 -19 -78 -35 -81 -35 -5 0 -76 -32 -230 -103 -125 -58 -585 -289 -670 -336
-38 -22 -86 -47 -105 -57 -19 -10 -100 -56 -180 -102 -80 -46 -160 -93 -179
-104 -138 -79 -676 -427 -722 -467 -8 -6 -66 -48 -129 -93 -132 -93 -407 -301
-525 -397 -157 -127 -206 -168 -360 -302 -71 -62 -138 -120 -149 -128 -10 -9
-28 -25 -40 -37 -11 -11 -55 -51 -96 -89 -79 -72 -453 -439 -556 -547 -282
-295 -635 -708 -884 -1038 -52 -69 -99 -129 -103 -135 -72 -87 -489 -703 -563
-830 -6 -11 -44 -74 -84 -140 -79 -130 -170 -286 -170 -291 0 -2 -17 -31 -37
-66 -90 -152 -452 -870 -459 -908 0 -3 -17 -41 -37 -84 -21 -44 -36 -80 -35
-82 4 -4 91 126 101 150 4 11 12 23 16 26 4 3 30 39 57 80 158 243 558 777
690 920 12 14 55 63 95 110 288 336 682 732 1054 1057 110 96 372 311 404 331
14 9 31 22 36 28 6 7 75 60 155 119 80 58 152 112 161 118 81 62 376 258 534
356 83 51 162 102 177 112 15 10 29 19 31 19 3 0 53 28 113 63 299 173 725
391 966 493 55 23 150 65 193 84 11 5 45 19 75 31 30 11 69 26 85 34 48 21
217 87 245 95 14 5 70 25 125 45 169 62 555 187 620 201 6 1 44 12 85 24 41
11 86 23 99 26 13 3 32 9 43 15 10 5 18 7 18 5 0 -3 11 -1 25 4 14 5 36 12 48
14 21 5 42 10 87 21 33 8 51 12 150 35 52 12 104 24 115 26 11 3 31 7 45 10
14 2 45 9 70 14 42 10 59 13 120 25 14 3 36 7 50 10 14 3 37 7 53 10 15 3 39
7 55 10 15 3 38 7 52 10 13 2 40 7 60 10 20 3 45 7 56 9 12 2 45 7 75 11 30 4
56 8 59 10 3 2 30 6 60 9 30 3 66 8 80 11 14 3 48 7 75 10 28 3 61 8 75 10 14
2 52 7 85 10 73 7 124 12 190 20 63 6 173 16 245 20 30 2 109 7 175 12 66 4
320 8 565 8 426 0 536 -4 869 -29 51 -4 101 -9 110 -11 9 -1 50 -6 91 -9 41
-4 91 -9 110 -11 19 -3 58 -7 85 -10 28 -3 61 -8 75 -10 14 -2 45 -7 70 -10
25 -3 56 -8 70 -10 14 -2 45 -7 70 -10 25 -3 59 -8 75 -11 17 -3 41 -7 55 -9
36 -5 99 -16 124 -21 11 -2 37 -7 56 -10 19 -4 40 -7 45 -9 11 -2 62 -12 108
-20 15 -3 37 -7 50 -10 12 -3 31 -7 42 -9 11 -3 54 -12 95 -21 41 -9 86 -19
100 -21 14 -3 52 -12 85 -21 33 -8 67 -16 76 -18 9 -2 33 -8 53 -13 20 -6 36
-8 36 -6 0 3 8 0 18 -5 11 -6 30 -12 43 -15 13 -3 51 -12 84 -21 33 -9 69 -19
80 -21 27 -7 37 -10 55 -17 17 -6 127 -37 150 -42 8 -2 35 -10 60 -18 25 -8
101 -33 170 -56 256 -83 493 -169 670 -243 217 -90 234 -97 333 -142 44 -20
80 -36 82 -36 13 0 480 -229 590 -290 28 -15 79 -43 115 -62 72 -39 150 -83
192 -107 160 -94 213 -126 338 -205 139 -87 257 -165 440 -291 84 -58 452
-330 493 -365 12 -10 54 -44 92 -75 137 -111 348 -291 445 -380 25 -23 67 -62
94 -86 79 -71 504 -499 592 -595 90 -99 201 -225 284 -324 30 -36 57 -67 60
-70 3 -3 57 -70 120 -150 63 -80 120 -152 127 -160 74 -93 331 -455 419 -590
27 -41 52 -76 57 -78 4 -2 7 -8 7 -13 0 -11 72 -123 83 -127 4 -2 7 -7 7 -12
0 -4 32 -61 72 -126 72 -120 78 -130 138 -239 19 -33 36 -62 39 -65 11 -10
376 -726 382 -748 3 -15 18 -50 63 -152 26 -58 51 -114 55 -125 22 -49 86
-209 122 -305 22 -58 44 -114 49 -125 24 -56 179 -516 186 -554 3 -13 9 -32
14 -41 5 -9 11 -29 14 -43 2 -15 9 -41 15 -59 12 -35 71 -243 76 -268 2 -8 11
-40 19 -72 8 -31 17 -67 20 -80 2 -12 7 -30 10 -38 3 -8 8 -26 10 -40 8 -39
15 -70 20 -88 3 -9 7 -28 10 -42 3 -14 8 -36 11 -50 3 -14 8 -36 11 -50 3 -14
7 -32 9 -40 2 -8 7 -31 10 -50 3 -19 8 -43 11 -53 3 -10 7 -30 9 -45 3 -15 7
-38 10 -52 3 -14 8 -41 11 -60 2 -19 9 -55 14 -80 5 -25 12 -61 15 -80 3 -19
10 -60 15 -90 16 -95 22 -134 25 -169 3 -19 7 -50 10 -70 4 -20 8 -52 11 -71
2 -19 6 -55 10 -80 3 -25 8 -61 9 -80 5 -48 14 -136 20 -190 3 -25 7 -72 10
-105 23 -275 22 -261 31 -490 13 -318 8 -781 -11 -1065 -10 -145 -19 -262 -30
-370 -2 -19 -7 -63 -10 -98 -4 -35 -8 -72 -10 -82 -2 -10 -7 -50 -10 -87 -4
-37 -9 -77 -11 -88 -6 -30 -14 -88 -19 -131 -2 -21 -7 -50 -10 -64 -3 -14 -7
-41 -10 -60 -8 -63 -16 -115 -20 -130 -2 -8 -6 -28 -9 -45 -7 -41 -15 -85 -21
-115 -2 -13 -7 -41 -10 -61 -3 -20 -10 -50 -15 -67 -5 -18 -7 -32 -5 -32 3 0
1 -10 -4 -23 -5 -13 -12 -39 -15 -58 -8 -46 -14 -77 -20 -97 -3 -9 -8 -32 -11
-51 -3 -19 -8 -37 -10 -41 -2 -3 -6 -17 -9 -31 -4 -21 -30 -134 -42 -179 -2
-8 -13 -49 -24 -90 -11 -41 -29 -106 -40 -145 -54 -197 -113 -387 -177 -570
-54 -156 -193 -523 -224 -592 -16 -35 -26 -63 -22 -63 3 0 1 -6 -5 -13 -6 -6
-19 -35 -30 -62 -71 -178 -343 -734 -469 -955 -17 -30 -41 -72 -52 -92 -288
-515 -686 -1086 -1100 -1578 -58 -69 -119 -141 -137 -160 -17 -19 -78 -87
-135 -150 -82 -90 -240 -257 -355 -374 -41 -41 -317 -300 -404 -377 -546 -489
-1249 -990 -1840 -1312 -30 -16 -64 -35 -75 -42 -59 -36 -453 -237 -595 -302
-36 -17 -91 -42 -122 -57 -32 -15 -61 -27 -65 -27 -5 -1 -17 -6 -28 -12 -11
-6 -22 -12 -25 -12 -3 -1 -21 -8 -40 -17 -19 -9 -69 -30 -110 -47 -41 -18 -84
-36 -95 -41 -162 -72 -796 -294 -960 -337 -5 -1 -84 -23 -175 -49 -91 -25
-169 -47 -175 -48 -5 -1 -16 -5 -22 -9 -7 -5 -13 -6 -13 -3 0 3 -11 1 -26 -4
-14 -6 -37 -12 -52 -15 -28 -5 -57 -11 -94 -21 -13 -3 -34 -7 -48 -10 -14 -3
-33 -7 -42 -10 -9 -3 -27 -7 -40 -10 -13 -3 -32 -7 -43 -9 -11 -3 -29 -7 -40
-9 -11 -2 -40 -9 -65 -15 -25 -5 -57 -12 -73 -15 -93 -17 -145 -27 -167 -31
-14 -3 -36 -7 -50 -10 -14 -3 -34 -7 -45 -9 -11 -2 -40 -7 -65 -10 -25 -3 -56
-8 -70 -11 -13 -2 -40 -7 -60 -10 -20 -3 -45 -7 -55 -9 -36 -7 -171 -26 -215
-31 -14 -2 -47 -6 -75 -9 -27 -4 -70 -9 -95 -12 -25 -2 -61 -6 -80 -9 -19 -3
-66 -7 -105 -10 -38 -4 -90 -8 -115 -10 -25 -3 -85 -7 -135 -11 -49 -3 -110
-8 -135 -10 -303 -22 -891 -22 -1235 0 -162 11 -376 29 -485 41 -180 20 -346
41 -390 50 -14 2 -43 7 -65 10 -23 3 -52 8 -65 10 -14 3 -41 7 -60 10 -19 3
-46 7 -60 10 -14 3 -45 8 -70 11 -25 3 -53 7 -62 10 -17 5 -42 10 -88 19 -36
7 -121 23 -150 30 -14 3 -36 7 -50 10 -53 10 -72 14 -88 19 -9 3 -28 7 -42 10
-47 9 -72 15 -169 40 -53 14 -108 27 -123 30 -15 2 -31 7 -36 10 -5 3 -19 7
-33 10 -37 8 -58 13 -139 36 -41 12 -79 23 -85 24 -13 3 -117 34 -170 51 -22
8 -110 36 -196 64 -86 28 -173 58 -193 66 -20 8 -36 13 -36 10 0 -3 -19 4 -42
16 -24 12 -45 22 -48 22 -9 -1 -118 38 -165 57 -11 5 -51 21 -90 36 -38 14
-94 37 -123 50 -29 13 -55 24 -58 24 -3 0 -35 14 -71 30 -35 17 -67 30 -70 30
-3 0 -33 13 -67 28 -34 16 -86 40 -116 53 -30 13 -153 72 -273 132 -120 59
-222 107 -225 107 -4 0 16 -16 43 -35 28 -19 55 -38 60 -43 6 -5 53 -38 105
-73 52 -35 101 -70 108 -77 7 -6 17 -12 21 -12 4 0 19 -9 32 -20 12 -12 39
-31 59 -42 19 -12 37 -25 40 -29 3 -3 21 -14 40 -24 19 -10 37 -21 40 -24 5
-6 125 -85 161 -106 10 -5 116 -69 236 -141 331 -200 502 -292 868 -473 132
-65 258 -126 280 -136 22 -9 60 -27 85 -40 25 -12 48 -22 52 -23 7 -2 32 -13
143 -62 11 -5 45 -20 75 -33 30 -13 150 -61 265 -107 116 -45 219 -86 230 -90
52 -22 448 -159 475 -165 8 -2 16 -4 18 -5 1 -2 5 -3 10 -4 4 -1 12 -4 17 -7
8 -5 38 -15 75 -24 21 -5 160 -49 182 -57 14 -5 41 -13 60 -18 18 -4 80 -22
138 -38 118 -34 322 -88 366 -97 36 -7 44 -9 69 -18 11 -3 31 -8 45 -11 14 -3
36 -8 50 -11 26 -6 50 -12 85 -19 11 -2 43 -10 70 -16 28 -6 61 -14 75 -16 14
-3 66 -13 115 -24 50 -10 104 -21 120 -24 17 -3 39 -7 50 -10 11 -2 36 -6 55
-10 19 -3 46 -8 60 -11 14 -3 40 -7 59 -10 18 -2 41 -6 50 -9 9 -3 36 -7 61
-10 25 -3 55 -8 66 -10 30 -6 80 -14 139 -22 28 -3 58 -8 69 -10 10 -2 44 -6
75 -9 31 -4 63 -8 71 -10 8 -2 42 -7 75 -10 33 -3 76 -8 96 -11 20 -2 56 -6
80 -9 24 -2 67 -7 94 -10 28 -3 79 -7 115 -10 36 -3 88 -7 115 -10 28 -2 95
-7 150 -11 55 -3 123 -8 150 -9 261 -18 737 -23 1080 -11 242 8 270 10 430 21
160 12 288 22 360 30 17 1 62 6 100 10 39 4 81 8 95 10 14 2 50 6 80 9 95 10
145 17 230 31 14 2 45 6 70 9 25 3 54 8 65 10 11 2 41 6 66 10 25 4 59 9 75
12 16 2 54 9 84 14 91 16 114 20 136 24 12 2 37 7 55 10 34 6 61 11 109 21 14
3 41 8 60 11 19 3 43 7 52 10 10 3 28 7 40 10 13 2 33 6 46 9 12 3 32 7 45 10
47 10 126 28 227 52 58 13 113 26 123 28 10 2 27 7 37 10 10 3 27 8 37 10 50
10 227 57 262 70 23 8 41 12 41 10 0 -2 15 2 33 10 17 7 34 13 37 13 25 -1
589 175 670 209 8 3 22 7 30 9 8 2 30 9 50 18 37 15 69 27 85 32 15 4 216 80
250 95 17 6 35 13 40 15 30 7 390 160 533 225 34 16 63 28 65 27 1 -1 16 5 32
14 17 9 149 75 295 147 296 146 376 188 620 326 630 355 1417 907 1910 1341
459 404 708 643 1036 999 438 474 851 1000 1199 1525 60 91 121 184 137 207
15 23 28 46 28 51 0 6 4 12 8 14 15 6 245 393 382 643 45 83 87 156 92 163 6
6 8 12 5 12 -3 0 9 26 27 58 52 92 224 446 293 602 13 30 28 62 32 70 8 15
140 321 146 340 6 18 19 52 37 95 11 28 24 59 28 70 4 11 13 34 20 50 20 48
101 269 104 280 1 6 4 15 7 20 5 8 59 164 64 185 1 3 4 12 8 20 9 23 58 173
62 190 2 8 11 38 20 65 10 28 18 55 19 60 1 6 9 33 18 60 26 81 58 189 63 213
2 12 6 26 9 30 3 5 7 19 10 33 2 13 18 74 34 134 33 121 92 356 98 395 3 14 7
33 10 42 5 16 6 24 24 108 5 25 12 56 15 70 6 26 22 108 30 150 3 14 7 36 10
50 3 14 8 36 10 50 2 14 6 36 9 50 3 14 10 52 15 85 6 33 13 71 16 85 3 14 8
43 11 65 3 22 7 49 9 60 2 11 6 40 10 65 3 25 8 59 11 75 6 31 8 45 19 134 4
30 8 62 10 71 4 21 13 98 20 165 3 28 7 66 9 85 3 19 8 64 11 100 3 36 8 88
11 115 9 91 19 223 29 390 31 490 22 1257 -20 1705 -2 25 -7 79 -10 120 -3 41
-8 93 -11 115 -3 22 -7 58 -9 80 -3 47 -13 133 -22 190 -3 22 -7 51 -8 65 -9
75 -16 138 -20 160 -2 14 -6 43 -10 65 -3 23 -7 52 -10 65 -3 14 -7 43 -10 65
-3 22 -7 50 -9 61 -2 12 -7 39 -11 60 -6 44 -12 77 -20 114 -3 14 -8 45 -11
70 -3 25 -8 48 -10 51 -2 4 -6 24 -9 45 -4 22 -8 47 -11 56 -3 10 -7 29 -10
43 -9 54 -13 73 -34 170 -12 55 -23 111 -26 125 -3 14 -10 43 -16 65 -5 22
-12 49 -14 60 -2 11 -15 65 -30 120 -28 109 -33 130 -39 160 -3 11 -19 70 -36
130 -17 61 -32 117 -34 125 -2 8 -19 69 -39 135 -21 66 -38 127 -40 135 -7 28
-139 425 -145 435 -3 6 -6 15 -7 20 -2 10 -70 199 -81 225 -3 8 -7 17 -8 20
-15 44 -159 407 -169 425 -5 11 -11 25 -12 30 -1 6 -14 37 -30 70 -15 33 -29
62 -29 65 -3 9 -25 61 -51 118 -14 31 -33 73 -41 92 -53 119 -297 604 -381
755 -162 293 -194 349 -204 353 -4 2 -8 8 -8 13 0 5 -30 58 -67 119 -38 61
-77 125 -87 143 -40 66 -293 446 -365 547 -78 111 -284 391 -312 425 -10 11
-63 79 -119 150 -57 72 -110 137 -119 146 -9 9 -29 34 -46 54 -39 49 -218 259
-260 305 -18 19 -58 64 -90 100 -120 136 -508 529 -684 693 -102 95 -192 179
-200 187 -107 102 -566 480 -791 651 -81 61 -114 85 -322 236 -48 35 -92 63
-97 63 -5 0 -11 4 -13 8 -4 10 -137 102 -148 102 -4 0 -10 4 -12 8 -3 7 -134
97 -163 112 -5 3 -36 22 -67 43 -31 20 -61 37 -67 37 -5 0 -11 3 -13 8 -4 11
-103 72 -116 72 -5 0 -12 4 -14 8 -3 7 -114 76 -208 130 -19 11 -87 49 -150
85 -63 36 -153 86 -200 111 -103 56 -567 289 -665 333 -186 85 -227 103 -320
143 -55 23 -113 48 -130 55 -26 11 -84 35 -162 66 -13 5 -33 13 -45 19 -23 9
-139 53 -148 55 -3 1 -18 7 -35 14 -16 6 -61 23 -100 37 -38 14 -92 34 -120
44 -44 16 -71 25 -110 37 -5 1 -66 22 -135 46 -123 42 -135 46 -155 53 -25 8
-123 37 -150 44 -16 4 -68 20 -115 34 -47 15 -94 28 -105 31 -11 2 -76 19
-145 38 -114 32 -317 84 -358 92 -9 2 -44 10 -77 19 -33 8 -76 18 -95 21 -19
3 -55 11 -80 16 -62 15 -80 18 -115 24 -16 3 -39 8 -50 12 -11 3 -31 7 -45 9
-14 1 -36 5 -50 8 -14 4 -41 9 -60 12 -19 3 -42 7 -51 10 -9 2 -32 7 -50 9
-19 3 -45 7 -59 10 -13 2 -40 7 -60 10 -20 3 -47 8 -60 10 -14 3 -41 7 -60 10
-19 3 -44 6 -55 9 -22 4 -103 16 -148 22 -15 2 -44 6 -65 8 -20 3 -62 8 -92
11 -30 3 -66 8 -80 10 -26 4 -73 10 -180 21 -36 3 -78 8 -95 10 -16 2 -66 6
-110 9 -44 3 -93 7 -110 10 -16 2 -79 7 -140 11 -60 3 -135 8 -165 11 -67 5
-1147 13 -1152 8z"/>
<path d="M13813 30954 c-244 -217 -748 -708 -978 -954 -458 -491 -896 -1024
-1283 -1563 -51 -70 -92 -130 -92 -133 0 -4 -6 -12 -13 -18 -32 -26 -471 -702
-596 -916 -18 -30 -55 -93 -83 -140 -27 -47 -62 -107 -77 -135 -15 -27 -34
-61 -43 -75 -8 -14 -30 -52 -48 -85 -18 -33 -51 -94 -73 -135 -114 -210 -312
-601 -400 -790 -16 -36 -43 -94 -60 -130 -17 -36 -31 -67 -32 -70 -4 -13 -27
-67 -51 -118 -14 -31 -44 -100 -66 -152 -22 -52 -48 -113 -58 -135 -14 -31
-97 -242 -190 -480 -4 -11 -15 -38 -23 -60 -23 -57 -119 -326 -122 -339 -1 -6
-5 -18 -8 -26 -15 -34 -183 -556 -192 -596 -2 -11 -18 -64 -35 -119 -16 -55
-32 -109 -34 -120 -2 -11 -16 -61 -30 -111 -15 -50 -28 -100 -30 -110 -2 -11
-9 -39 -16 -64 -7 -25 -14 -52 -15 -60 -2 -8 -15 -58 -29 -110 -14 -53 -27
-107 -30 -120 -3 -14 -7 -35 -10 -47 -4 -13 -8 -32 -11 -44 -2 -11 -6 -28 -9
-37 -3 -9 -8 -29 -11 -44 -11 -58 -16 -84 -27 -128 -6 -25 -12 -54 -14 -65 -1
-11 -5 -31 -9 -45 -3 -14 -8 -38 -11 -55 -2 -16 -9 -46 -14 -65 -5 -19 -12
-51 -15 -70 -5 -34 -10 -57 -21 -110 -2 -14 -7 -38 -9 -55 -3 -16 -7 -41 -10
-55 -3 -14 -8 -40 -11 -59 -3 -18 -8 -43 -10 -55 -3 -11 -7 -34 -9 -51 -3 -16
-7 -41 -10 -55 -2 -13 -7 -42 -10 -65 -4 -22 -8 -51 -10 -65 -2 -14 -9 -56
-15 -95 -12 -73 -17 -113 -25 -180 -3 -22 -7 -51 -10 -65 -2 -14 -7 -49 -10
-79 -4 -30 -8 -61 -10 -70 -1 -9 -6 -45 -10 -81 -3 -36 -8 -81 -11 -100 -9
-79 -14 -122 -29 -280 -58 -598 -78 -1215 -61 -1865 4 -159 9 -315 10 -345 2
-30 7 -111 11 -180 4 -69 8 -141 10 -160 13 -176 17 -230 20 -260 2 -19 6 -66
9 -105 4 -38 9 -88 11 -110 3 -22 7 -60 10 -85 2 -25 7 -63 9 -85 3 -22 8 -69
11 -105 4 -36 9 -74 11 -85 2 -11 6 -42 9 -70 3 -27 7 -61 10 -75 3 -14 7 -43
10 -65 10 -85 19 -143 32 -220 2 -16 6 -41 8 -55 2 -14 6 -38 9 -55 3 -16 7
-48 11 -70 3 -23 8 -52 10 -65 3 -14 8 -38 10 -55 13 -73 25 -142 30 -165 3
-14 8 -38 10 -55 3 -16 8 -37 10 -45 3 -8 7 -31 9 -50 3 -19 7 -44 10 -55 12
-51 36 -168 41 -197 3 -18 11 -51 17 -73 5 -22 12 -49 13 -60 5 -31 15 -78 21
-97 3 -9 6 -25 8 -35 2 -10 9 -38 16 -63 7 -25 14 -56 17 -69 2 -14 6 -28 8
-31 2 -4 6 -20 9 -36 3 -16 17 -74 32 -129 14 -55 27 -108 29 -119 3 -10 12
-44 21 -75 9 -31 18 -63 20 -71 13 -60 57 -212 70 -245 9 -22 16 -42 15 -45 0
-3 5 -23 11 -45 6 -22 12 -43 14 -47 1 -5 2 -9 4 -10 1 -2 3 -10 5 -18 5 -23
59 -194 100 -315 20 -60 38 -117 40 -125 2 -8 9 -28 16 -45 7 -16 13 -32 14
-35 7 -29 25 -80 61 -175 4 -11 8 -24 10 -30 3 -13 89 -242 104 -280 7 -16 16
-39 20 -50 90 -232 231 -569 311 -743 22 -46 39 -85 39 -86 0 -24 331 -687
470 -941 24 -44 49 -89 54 -100 9 -16 55 -96 191 -333 6 -10 33 -55 60 -100
70 -116 67 -112 100 -167 16 -27 32 -52 35 -55 3 -3 14 -22 25 -42 11 -21 23
-38 27 -38 5 0 8 -5 8 -10 0 -6 39 -70 87 -143 100 -152 110 -167 119 -187 4
-8 10 -17 13 -20 4 -3 31 -41 61 -85 131 -194 408 -579 476 -665 7 -8 63 -80
125 -160 101 -131 300 -377 355 -440 12 -14 76 -88 142 -165 193 -226 532
-592 758 -819 59 -59 409 -393 484 -461 41 -38 77 -72 80 -75 3 -3 77 -69 165
-145 341 -299 698 -585 1045 -839 80 -58 150 -109 155 -114 6 -4 27 -19 47
-34 20 -16 41 -28 46 -28 6 0 12 -3 14 -8 5 -12 104 -82 116 -82 6 0 12 -3 14
-8 4 -11 166 -122 177 -122 5 0 11 -4 13 -8 4 -10 206 -142 218 -142 4 0 10
-3 12 -7 4 -11 65 -53 76 -53 5 0 18 -8 30 -18 21 -18 45 -33 232 -144 63 -38
122 -73 130 -78 471 -287 1180 -646 1770 -896 19 -9 44 -19 55 -24 85 -37 135
-58 165 -69 19 -8 49 -19 65 -26 49 -22 188 -77 215 -85 14 -5 61 -23 105 -40
44 -17 125 -47 180 -66 55 -19 109 -39 120 -44 32 -15 525 -179 525 -174 0 2
21 -5 48 -15 26 -10 50 -19 55 -20 4 0 8 -1 10 -2 1 0 9 -2 17 -4 8 -2 35 -10
60 -18 25 -8 65 -20 90 -27 25 -7 56 -16 70 -21 23 -8 124 -35 160 -44 8 -1
40 -10 71 -19 31 -9 65 -18 75 -21 11 -2 55 -13 99 -25 44 -11 127 -32 185
-46 58 -14 112 -27 120 -29 25 -6 243 -56 265 -61 11 -2 36 -7 55 -11 42 -9
32 -6 105 -22 33 -8 67 -15 75 -16 8 -1 26 -4 40 -8 14 -3 41 -9 60 -12 19 -2
46 -7 60 -10 14 -3 36 -7 50 -10 42 -8 144 -27 165 -30 11 -1 36 -6 55 -9 19
-4 47 -9 63 -11 15 -3 42 -8 60 -11 17 -3 46 -7 62 -9 17 -2 44 -6 60 -9 17
-3 48 -8 70 -11 22 -2 51 -7 65 -10 14 -2 45 -7 70 -9 25 -3 55 -7 67 -10 12
-3 50 -7 85 -11 35 -3 74 -8 88 -10 60 -9 108 -15 155 -20 28 -2 73 -7 100
-10 186 -21 300 -31 556 -50 289 -21 776 -39 1099 -39 165 0 650 12 770 19
290 17 312 18 460 30 47 4 101 9 120 10 19 1 69 6 110 10 41 4 89 9 105 10 50
4 169 17 185 20 14 3 111 14 170 20 41 4 144 17 165 21 10 2 35 6 55 9 95 14
117 17 140 19 14 2 45 6 70 10 25 4 59 10 75 12 42 7 79 13 118 20 17 3 41 7
52 9 27 4 92 16 119 21 11 2 41 7 66 10 25 3 48 8 51 10 4 2 24 6 44 10 21 3
47 8 59 10 11 2 32 6 46 9 14 3 36 7 50 10 14 3 36 7 50 10 14 3 36 7 50 10
14 3 45 10 70 15 84 18 92 19 108 24 9 3 29 7 45 10 15 3 35 7 45 10 9 3 29 8
45 11 67 13 87 17 177 40 109 27 155 37 155 35 0 -1 14 4 30 10 17 7 37 13 45
15 58 13 117 28 195 50 90 26 110 31 143 39 15 4 96 28 287 85 33 10 65 19 70
21 6 2 123 40 260 86 138 46 260 86 272 89 12 3 42 14 67 25 26 11 47 19 49
19 8 -1 432 159 537 204 14 5 30 11 35 12 9 3 206 85 250 105 85 39 162 72
170 74 6 2 35 14 65 28 30 14 78 36 105 48 142 64 225 104 503 243 166 84 319
160 340 171 20 10 39 22 42 25 3 4 14 11 25 15 17 6 375 205 425 236 8 5 60
36 115 68 182 107 450 274 453 283 2 5 8 9 13 9 12 0 93 52 97 63 2 4 7 7 12
7 8 0 250 158 260 170 3 3 19 14 35 24 66 41 380 268 555 400 279 211 590 462
805 650 44 39 91 80 104 91 30 25 25 21 161 144 229 207 581 550 772 751 24
25 75 79 114 120 70 75 230 250 334 368 30 35 65 74 78 89 51 57 321 382 372
448 30 39 57 72 60 75 20 18 386 502 450 596 8 12 56 80 105 150 190 271 605
916 605 941 0 3 6 14 14 22 7 9 25 36 39 61 13 25 60 108 104 185 87 152 141
251 215 390 57 107 315 626 351 705 14 30 38 84 54 120 17 36 45 99 63 140 18
41 43 98 55 125 12 28 39 91 59 140 20 50 41 100 46 113 6 12 14 32 19 45 5
12 17 42 27 67 11 24 19 47 20 50 0 3 8 23 18 45 10 22 19 45 20 50 1 6 10 27
19 49 9 21 17 42 17 47 0 5 5 17 10 27 11 18 110 286 115 312 2 8 4 16 5 18 2
1 3 5 5 10 1 4 5 14 8 22 6 13 42 117 51 145 2 6 6 18 10 27 4 9 9 22 10 30 2
7 8 26 14 41 7 16 12 32 12 37 0 5 17 62 39 127 45 139 102 320 105 337 7 33
19 74 27 96 5 14 11 34 14 45 2 11 13 52 25 90 11 39 22 79 25 90 2 11 31 126
64 255 33 129 62 246 65 260 9 44 15 71 20 88 3 9 7 28 10 42 3 14 8 39 11 55
3 17 10 46 15 65 5 19 12 49 14 65 3 17 8 41 11 55 3 14 7 36 10 50 10 52 14
72 19 88 3 9 7 33 10 52 3 19 8 46 11 60 2 14 7 36 10 50 2 14 7 39 9 55 7 40
15 84 21 115 3 14 7 41 10 60 3 19 7 46 10 60 2 13 7 40 10 60 3 20 7 47 10
60 3 13 7 42 10 65 4 22 8 51 10 65 2 14 7 45 10 70 3 25 8 56 10 70 2 14 7
45 10 70 3 25 8 65 11 90 7 49 9 67 18 151 4 31 8 66 11 79 2 12 7 52 10 89 4
36 8 80 10 96 1 17 6 64 9 105 4 41 9 91 11 111 3 20 7 74 10 120 3 46 8 104
10 129 40 453 50 1371 20 1880 -12 211 -18 310 -20 340 -1 19 -6 79 -9 132 -4
54 -9 106 -11 117 -2 11 -6 55 -9 98 -3 43 -8 88 -10 100 -3 12 -7 57 -11 100
-3 43 -8 92 -10 108 -3 17 -7 53 -11 80 -3 28 -7 61 -9 75 -2 14 -6 52 -10 84
-4 33 -8 67 -10 76 -2 9 -6 41 -10 70 -4 29 -9 62 -11 74 -2 12 -7 41 -10 66
-3 25 -7 56 -10 70 -2 14 -6 41 -9 60 -3 19 -7 46 -10 60 -3 14 -7 39 -9 55
-3 17 -7 46 -11 65 -3 19 -8 47 -10 63 -7 41 -14 79 -20 107 -3 14 -7 41 -11
60 -5 34 -10 56 -38 195 -8 39 -17 84 -20 100 -3 17 -8 41 -11 55 -3 14 -8 36
-11 50 -3 14 -14 62 -24 107 -11 46 -22 93 -24 105 -4 20 -16 76 -32 141 -2 9
-6 25 -8 35 -8 32 -27 107 -31 125 -3 9 -7 25 -9 35 -2 9 -16 62 -31 117 -15
55 -28 107 -30 115 -2 8 -8 33 -14 55 -6 22 -11 45 -12 50 -1 6 -8 25 -16 43
-7 17 -11 32 -8 32 2 0 0 12 -6 28 -6 15 -12 34 -14 42 -2 8 -13 47 -25 85
-12 39 -23 77 -25 85 -17 75 -245 756 -288 860 -6 14 -11 27 -12 30 -4 18 -31
91 -43 120 -9 19 -17 40 -18 45 -2 12 -61 163 -74 190 -5 11 -19 45 -31 75
-11 30 -27 71 -36 90 -8 19 -19 44 -23 55 -4 11 -12 31 -17 45 -6 14 -10 27
-10 30 1 3 -6 19 -16 35 -9 17 -25 50 -36 75 -162 374 -353 771 -521 1085 -38
72 -73 137 -77 145 -6 13 -98 179 -152 273 -11 20 -31 54 -42 75 -49 86 -104
177 -110 182 -3 3 -9 15 -13 28 -4 12 -12 22 -17 22 -5 0 -9 4 -9 9 0 6 -16
36 -35 68 -36 60 -44 65 -23 16 6 -15 12 -30 12 -33 3 -9 59 -155 74 -190 9
-19 17 -39 18 -45 2 -5 17 -46 33 -90 115 -311 177 -493 261 -770 62 -204 82
-272 86 -289 2 -10 8 -33 13 -50 10 -31 50 -177 56 -206 2 -8 17 -69 34 -135
31 -118 36 -138 46 -192 3 -16 8 -36 11 -45 3 -9 7 -25 9 -35 2 -10 10 -47 19
-83 8 -36 17 -76 20 -90 2 -14 16 -81 30 -150 24 -118 28 -140 41 -215 3 -16
10 -50 15 -75 5 -25 12 -61 14 -80 3 -19 8 -46 11 -60 2 -13 7 -42 10 -65 4
-22 9 -53 11 -70 10 -52 19 -112 29 -190 2 -16 6 -43 9 -60 9 -55 21 -147 30
-235 4 -30 8 -71 11 -90 3 -19 7 -53 9 -75 4 -35 8 -69 22 -210 11 -118 24
-289 39 -535 32 -505 22 -1333 -21 -1835 -3 -33 -7 -87 -9 -120 -3 -33 -7 -80
-10 -105 -2 -25 -7 -70 -10 -100 -9 -93 -23 -216 -30 -259 -3 -14 -7 -54 -11
-90 -3 -36 -8 -74 -10 -86 -2 -11 -6 -40 -9 -65 -3 -25 -7 -56 -10 -70 -3 -14
-7 -45 -10 -70 -3 -25 -7 -56 -10 -70 -3 -14 -8 -40 -11 -59 -2 -19 -7 -48
-10 -65 -3 -17 -7 -42 -9 -56 -2 -14 -7 -41 -11 -60 -3 -19 -8 -45 -9 -57 -2
-11 -5 -29 -9 -40 -3 -10 -8 -36 -11 -58 -3 -23 -8 -52 -10 -65 -3 -14 -7 -36
-10 -50 -10 -52 -14 -72 -19 -88 -3 -9 -7 -34 -11 -56 -3 -21 -7 -41 -9 -45
-2 -3 -7 -22 -10 -41 -8 -47 -14 -78 -20 -98 -3 -9 -8 -33 -11 -52 -3 -19 -8
-43 -11 -52 -3 -9 -7 -26 -9 -37 -3 -12 -7 -30 -10 -41 -3 -11 -7 -29 -9 -40
-3 -11 -21 -84 -41 -162 -20 -79 -39 -151 -41 -161 -2 -10 -6 -27 -9 -37 -3
-10 -8 -27 -10 -37 -2 -10 -16 -58 -30 -108 -14 -49 -28 -97 -30 -105 -2 -8
-8 -28 -15 -45 -6 -16 -11 -30 -10 -30 4 0 -22 -89 -45 -160 -21 -64 -85 -266
-91 -290 -3 -9 -72 -205 -87 -245 -3 -8 -20 -55 -37 -105 -30 -85 -121 -326
-140 -370 -5 -11 -19 -45 -30 -75 -12 -30 -27 -68 -34 -85 -7 -16 -18 -41 -24
-55 -5 -14 -22 -51 -36 -83 -14 -32 -26 -60 -26 -62 0 -8 -90 -208 -107 -240
-10 -16 -17 -32 -16 -35 1 -11 -269 -567 -327 -670 -10 -19 -60 -111 -111
-205 -227 -420 -484 -834 -814 -1310 -82 -118 -363 -493 -464 -620 -154 -193
-460 -557 -501 -595 -3 -3 -34 -39 -70 -79 -99 -113 -262 -284 -490 -511 -305
-304 -486 -473 -740 -689 -80 -68 -158 -136 -175 -150 -68 -59 -381 -306 -535
-422 -179 -134 -181 -136 -285 -208 -38 -27 -88 -63 -110 -79 -62 -45 -419
-281 -525 -347 -52 -33 -96 -63 -98 -67 -2 -4 -8 -8 -13 -8 -9 0 -37 -16 -135
-77 -10 -7 -48 -29 -84 -49 -36 -21 -66 -41 -68 -46 -2 -4 -12 -8 -22 -8 -10
0 -21 -4 -24 -9 -12 -19 -459 -263 -743 -405 -84 -42 -155 -76 -158 -76 -3 0
-31 -13 -63 -29 -58 -31 -228 -110 -237 -110 -3 0 -26 -12 -53 -26 -26 -14
-50 -25 -53 -25 -3 0 -37 -14 -75 -32 -38 -17 -71 -32 -74 -33 -3 -1 -17 -7
-32 -13 -15 -6 -67 -27 -115 -47 -97 -39 -114 -46 -158 -66 -16 -7 -32 -13
-35 -13 -5 -1 -54 -20 -105 -41 -16 -7 -64 -25 -105 -40 -41 -15 -111 -41
-155 -57 -166 -62 -667 -229 -725 -242 -8 -2 -42 -12 -75 -22 -33 -10 -64 -19
-70 -20 -5 -1 -37 -10 -70 -20 -33 -10 -64 -19 -70 -20 -5 -1 -53 -14 -105
-29 -52 -14 -102 -27 -110 -29 -24 -6 -268 -65 -339 -82 -36 -9 -73 -18 -83
-20 -10 -2 -28 -6 -40 -9 -13 -3 -36 -8 -53 -10 -16 -3 -38 -8 -47 -11 -20 -6
-55 -14 -88 -19 -14 -2 -36 -7 -50 -10 -14 -3 -36 -7 -50 -10 -14 -3 -36 -7
-50 -10 -14 -4 -34 -8 -45 -10 -67 -11 -100 -17 -119 -21 -11 -3 -32 -7 -46
-9 -40 -6 -132 -22 -170 -30 -14 -3 -43 -7 -65 -10 -22 -3 -51 -7 -65 -10 -14
-3 -45 -8 -70 -11 -25 -3 -52 -7 -60 -9 -8 -3 -42 -7 -74 -11 -33 -3 -69 -8
-80 -10 -12 -2 -39 -7 -61 -9 -22 -3 -58 -8 -79 -11 -21 -3 -60 -7 -85 -9 -25
-2 -64 -7 -86 -9 -69 -9 -213 -24 -305 -31 -36 -3 -85 -7 -109 -10 -24 -2 -87
-7 -140 -11 -53 -3 -118 -7 -146 -9 -202 -14 -431 -19 -825 -20 -499 0 -768
10 -1115 40 -16 1 -67 6 -113 9 -46 4 -98 9 -115 11 -18 2 -61 7 -97 10 -36 3
-83 8 -105 11 -22 3 -60 7 -85 10 -25 2 -56 6 -70 9 -30 4 -124 16 -160 20
-23 2 -57 7 -145 21 -16 3 -45 7 -64 10 -40 5 -86 12 -121 19 -14 3 -41 7 -60
10 -19 2 -45 6 -56 9 -12 2 -39 7 -60 10 -55 9 -144 25 -174 32 -14 3 -34 7
-45 9 -24 4 -71 13 -105 20 -14 3 -36 7 -50 10 -14 3 -36 7 -50 10 -14 3 -36
7 -50 10 -32 6 -42 8 -180 40 -63 15 -124 29 -135 31 -20 4 -327 81 -355 89
-8 2 -33 9 -55 15 -52 14 -47 12 -210 59 -123 35 -240 70 -340 102 -16 6 -37
12 -45 14 -8 2 -89 29 -180 60 -91 31 -169 57 -175 58 -10 3 -95 33 -130 47
-11 4 -38 15 -60 23 -109 43 -261 99 -270 101 -5 1 -32 12 -59 24 -27 12 -51
22 -54 22 -6 0 -125 49 -207 85 -16 7 -79 34 -140 60 -60 26 -141 62 -180 80
-38 17 -99 45 -135 61 -87 39 -618 304 -700 350 -36 19 -87 48 -115 64 -27 15
-70 39 -95 52 -25 14 -63 36 -85 48 -22 13 -53 31 -70 40 -16 9 -49 28 -72 43
-24 15 -45 27 -47 27 -3 0 -48 27 -101 60 -53 33 -98 60 -101 60 -3 0 -17 8
-32 19 -15 10 -65 43 -112 72 -47 30 -186 121 -309 204 -123 82 -230 155 -239
160 -9 6 -21 15 -28 20 -6 6 -37 28 -69 50 -130 91 -436 323 -598 453 -429
345 -707 594 -1101 987 -424 422 -646 668 -1040 1155 -87 107 -332 429 -366
480 -8 13 -24 35 -36 49 -137 172 -594 875 -737 1135 -16 28 -36 62 -45 76 -9
14 -31 54 -50 90 -19 36 -38 70 -42 75 -7 9 -49 85 -102 185 -10 19 -22 42
-27 50 -90 164 -355 711 -428 885 -14 33 -33 78 -43 100 -10 22 -36 85 -59
140 -23 55 -50 120 -61 145 -21 51 -54 136 -100 260 -18 47 -36 94 -40 105 -4
11 -17 45 -28 75 -11 30 -34 94 -51 142 -18 47 -34 96 -36 108 -2 12 -10 29
-17 38 -7 8 -12 17 -10 19 1 2 -5 29 -15 61 -9 31 -17 59 -18 62 0 3 -5 19
-12 35 -6 17 -28 84 -48 150 -20 66 -41 136 -48 155 -6 19 -12 37 -12 40 -13
51 -18 69 -25 90 -4 14 -16 54 -25 90 -9 36 -21 76 -26 90 -5 14 -11 35 -14
48 -7 30 -8 36 -50 202 -20 80 -39 153 -41 163 -2 9 -6 25 -8 35 -39 166 -113
516 -132 631 -3 18 -8 43 -10 55 -2 11 -7 36 -10 55 -3 18 -8 43 -10 55 -2 11
-6 37 -9 56 -3 19 -7 46 -10 60 -3 14 -7 39 -9 55 -3 17 -7 44 -10 60 -2 17
-8 50 -11 75 -4 25 -9 54 -11 65 -2 11 -6 43 -9 70 -4 28 -8 61 -10 75 -2 14
-7 50 -10 80 -3 30 -8 66 -10 80 -6 37 -18 142 -30 265 -3 33 -8 80 -11 105
-9 94 -20 233 -29 380 -4 52 -8 118 -10 145 -24 333 -24 1160 0 1525 2 30 6
100 10 155 4 55 8 123 10 150 3 52 14 172 21 240 2 22 7 67 10 100 4 33 8 74
9 90 2 17 6 57 10 90 4 33 9 71 10 85 2 14 5 43 9 65 3 22 8 59 11 83 3 23 8
61 11 85 3 23 7 53 9 67 2 14 6 43 10 65 11 67 14 88 20 130 8 52 14 84 20
115 3 14 7 41 10 60 3 19 6 44 9 55 2 11 6 36 10 55 3 19 8 46 11 60 3 14 8
40 10 59 3 19 12 61 19 95 8 34 17 81 21 106 4 24 8 47 10 51 2 3 7 19 9 35 7
33 9 44 30 139 9 39 19 81 22 95 3 14 25 106 50 205 25 99 47 187 49 195 14
56 36 136 54 200 12 41 23 82 26 90 2 8 20 69 40 135 20 66 45 147 55 180 10
33 23 72 29 88 6 15 8 27 5 27 -4 0 -2 6 4 13 6 7 13 24 16 37 3 14 30 97 61
185 31 88 61 171 65 185 31 90 138 370 200 520 45 108 63 153 65 160 0 3 9 20
18 37 10 18 18 35 18 38 0 5 24 61 80 187 71 160 101 222 230 483 117 235 167
331 247 478 15 27 38 70 52 95 57 105 222 386 288 492 23 36 59 95 81 131 36
60 316 482 388 584 143 206 438 595 571 754 57 68 74 91 69 91 -3 0 -54 -43
-114 -96z"/>
</g>
</svg>
